<svg xmlns="http://www.w3.org/2000/svg" viewBox="0 0 209.38 209.38"><defs><style>.cls-1{fill:#4690c7;}.cls-2{fill:#d6253f;}.cls-2,.cls-3,.cls-4{fill-rule:evenodd;}.cls-3{fill:#43ac62;}.cls-4{fill:#fefefe;}</style></defs><title>Asset 5</title><g id="Layer_2" data-name="Layer 2"><g id="Layer_1-2" data-name="Layer 1"><circle class="cls-1" cx="104.69" cy="104.69" r="104.69"/><path class="cls-2" d="M6,139.65h197.4a105.06,105.06,0,0,0,0-69.88H6a105.06,105.06,0,0,0,0,69.88Z"/><path class="cls-3" d="M203.39,139.65H6a104.72,104.72,0,0,0,197.4,0Z"/><path class="cls-4" d="M104.35,129.2a24.49,24.49,0,1,1,13.27-45,29.35,29.35,0,1,0,0,41.11A24.3,24.3,0,0,1,104.35,129.2Z"/><polygon class="cls-4" points="137.46 115.82 129.44 112.18 126.35 120.46 123.26 112.18 115.23 115.82 118.87 107.79 110.62 104.7 118.87 101.59 115.26 93.61 123.28 97.2 126.37 89.01 129.48 97.24 137.48 93.61 133.82 101.59 142.07 104.73 133.82 107.82 137.46 115.82"/></g></g></svg>