<svg xmlns="http://www.w3.org/2000/svg" viewBox="0 0 209.38 209.38"><defs><style>.cls-1,.cls-5{fill:#319342;}.cls-2{fill:#efc906;}.cls-2,.cls-3,.cls-4,.cls-5{fill-rule:evenodd;}.cls-3{fill:#33306f;}.cls-4{fill:#fefefe;}</style></defs><title>Asset 8</title><g id="Layer_2" data-name="Layer 2"><g id="Layer_1-2" data-name="Layer 1"><circle class="cls-1" cx="104.69" cy="104.69" r="104.69" transform="translate(-43.36 104.69) rotate(-45)"/><polygon class="cls-2" points="0.01 105.03 104.7 183.96 209.38 105.08 209.38 104.69 209.38 104.29 104.7 25.41 0.01 104.34 0 104.69 0.01 105.03"/><path class="cls-3" d="M157,104.69a52.32,52.32,0,1,1-52.33-52.36A52.32,52.32,0,0,1,157,104.69Z"/><path class="cls-4" d="M74.8,82.24a131.28,131.28,0,0,0-18,1.27,52.16,52.16,0,0,0-2.78,8A123.54,123.54,0,0,1,74.8,89.73a119.11,119.11,0,0,1,79.86,30.59,47.28,47.28,0,0,0,1.86-8.28A126.53,126.53,0,0,0,74.8,82.24Z"/><path class="cls-5" d="M60,88.46a1.5,1.5,0,0,0,1.11-1.72,1.44,1.44,0,0,0-1.51-1.39,1.45,1.45,0,0,0-1.13,1.71A1.49,1.49,0,0,0,60,88.46Zm.1.91a2.32,2.32,0,0,1-2.5-2.19,2.29,2.29,0,0,1,1.9-2.74,2.5,2.5,0,0,1,.6,4.93Z"/><path class="cls-5" d="M64.84,86.1,66.76,86a.68.68,0,0,0,.58-.7.61.61,0,0,0-.65-.59l-1.93.11.08,1.3Zm-.72,2.84-.3-5,2.87-.19a1.58,1.58,0,0,1,1.68,1.44,1.64,1.64,0,0,1-1.44,1.69l-2,.13L65,88.86Z"/><path class="cls-5" d="M68.33,88.65c0-.73-.13-2.27-1.22-2.22l-1.36.09c1.55-.09,1.68,1.48,1.76,2.17Z"/><path class="cls-5" d="M71.33,87.59l1.36,0A1.33,1.33,0,0,0,74,86.2v-.45a1.34,1.34,0,0,0-1.34-1.31l-1.38,0,0,3.12Zm-.87,1-.09-5,2.32,0a2.15,2.15,0,0,1,2.17,2.09l0,.72a2.15,2.15,0,0,1-2.12,2.19Z"/><polygon class="cls-5" points="76.73 88.48 81.24 88.65 81.28 87.7 77.67 87.58 77.71 86.31 80.57 86.38 80.57 85.54 77.75 85.44 77.75 84.45 81.19 84.57 81.19 83.63 76.93 83.48 76.73 88.48"/><polygon class="cls-5" points="83.1 88.74 83.96 88.81 84.24 85.42 84.92 88.9 85.73 88.98 87 85.65 86.7 89.06 87.55 89.13 87.98 84.17 86.77 84.06 85.45 87.37 84.77 83.88 83.52 83.78 83.1 88.74"/><polygon class="cls-5" points="93.39 89.9 97.13 90.52 97.24 89.69 94.41 89.21 94.61 88.1 96.95 88.5 97.05 87.64 94.77 87.25 94.87 86.46 97.63 86.94 97.74 86.1 94.19 85.48 93.39 89.9"/><path class="cls-5" d="M104.51,89.3l1.83.49a.61.61,0,0,0,.76-.46.65.65,0,0,0-.44-.78l-1.86-.48-.29,1.23Zm-1.63,2.47,1.33-4.83,2.76.72a1.63,1.63,0,0,1,1.12,1.93,1.58,1.58,0,0,1-1.93,1.11l-1.91-.48-.5,1.78Z"/><path class="cls-5" d="M110.74,91l1.82.59a.66.66,0,0,0,.8-.43.6.6,0,0,0-.41-.79l-1.82-.59L110.74,91ZM109,93.39l1.55-4.72,2.76.86a1.55,1.55,0,0,1,1,2,1.57,1.57,0,0,1-2,1l-1.87-.59-.56,1.75Z"/><path class="cls-5" d="M113,94.66c.24-.67.7-2.15-.31-2.47l-1.27-.42c1.47.48,1,2,.77,2.65Z"/><path class="cls-5" d="M117.44,95.26a1.59,1.59,0,0,0,1.12-2.93,1.52,1.52,0,0,0-1.82,1,1.5,1.5,0,0,0,.7,1.93Zm-.32.88a2.51,2.51,0,0,1,1.75-4.67,2.34,2.34,0,0,1,1.22,3.12A2.38,2.38,0,0,1,117.12,96.14Z"/><path class="cls-5" d="M123.37,97.65a1.4,1.4,0,0,0,1.81-.91,1.44,1.44,0,0,0-.57-2,1.59,1.59,0,0,0-1.25,2.87Zm-.38.86a2.4,2.4,0,0,1-1-3.18,2.36,2.36,0,0,1,3-1.39,2.5,2.5,0,0,1-2,4.57Z"/><polygon class="cls-5" points="124.31 96.35 126.06 97.12 125.73 97.77 124.04 97 124.31 96.35"/><polygon class="cls-5" points="125.39 96.82 126.06 97.12 125.03 99.39 124.44 99.1 125.39 96.82"/><path class="cls-5" d="M128.8,98.11l1.71.84a.61.61,0,0,0,.85-.27.65.65,0,0,0-.26-.86L129.34,97l-.54,1.14Zm-2,2.07L129,95.76,131.56,97a1.57,1.57,0,0,1-1.4,2.8l-1.78-.91-.81,1.67Z"/><path class="cls-5" d="M130.51,102.07c.31-.63,1-2,.06-2.52l-1.23-.62c1.44.72.73,2.13.44,2.74Z"/><polygon class="cls-5" points="132.37 103.05 136.3 105.25 136.71 104.45 133.58 102.67 134.19 101.55 136.67 102.95 137.09 102.18 134.63 100.81 135.13 99.91 138.07 101.62 138.57 100.81 134.82 98.7 132.37 103.05"/><path class="cls-5" d="M139.66,105.49c-.27.4,0,.89.58,1.27s1,.36,1.2.11c.54-.88-2.6-2.13-1.64-3.6.82-1.29,2.26-.3,2.81,0a1.63,1.63,0,0,1,.72,2.27l-.92-.6c.32-.43,0-.88-.51-1.15s-.84-.47-1.11,0c-.48.68,2.63,2,1.64,3.48-.64,1.09-1.87.6-2.67.09s-1.73-1.48-1.08-2.52Z"/><path class="cls-5" d="M145,109c-.32.39-.08.89.5,1.31s1,.43,1.21.16c.57-.82-2.53-2.24-1.44-3.67.9-1.24,2.3-.17,2.8.18a1.61,1.61,0,0,1,.58,2.31l-.86-.64c.28-.42,0-.86-.48-1.21s-.77-.47-1.08,0c-.5.67,2.48,2.16,1.49,3.58-.78,1.06-2,.52-2.72,0s-1.68-1.58-.94-2.59Z"/><path class="cls-5" d="M150.63,114a1.43,1.43,0,0,0,2-.39,1.48,1.48,0,0,0-.08-2,1.59,1.59,0,0,0-1.95,2.44Zm-.59.74a2.38,2.38,0,0,1-.19-3.34,2.35,2.35,0,0,1,3.3-.55,2.5,2.5,0,0,1-3.11,3.89Z"/><polygon class="cls-4" points="61.95 93.04 61.27 95.17 62.35 95.52 61.95 93.04"/><polygon class="cls-4" points="61.95 93.04 62.66 95.17 61.6 95.52 61.95 93.04"/><polygon class="cls-4" points="64.08 94.59 61.84 94.59 61.84 95.69 64.08 94.59"/><polygon class="cls-4" points="64.08 94.59 62.31 95.89 61.6 95 64.08 94.59"/><polygon class="cls-4" points="59.83 94.59 61.65 95.89 62.31 95 59.83 94.59"/><polygon class="cls-4" points="59.83 94.59 62.08 94.59 62.08 95.69 59.83 94.59"/><polygon class="cls-4" points="63.27 97.09 62.58 94.95 61.53 95.32 63.27 97.09"/><polygon class="cls-4" points="63.27 97.09 61.45 95.77 62.13 94.85 63.27 97.09"/><polygon class="cls-4" points="60.64 97.09 62.46 95.77 61.8 94.85 60.64 97.09"/><polygon class="cls-4" points="60.64 97.09 61.34 94.95 62.44 95.32 60.64 97.09"/><polygon class="cls-4" points="66.62 115.04 65.9 117.17 66.99 117.51 66.62 115.04"/><polygon class="cls-4" points="66.62 115.04 67.28 117.17 66.23 117.51 66.62 115.04"/><polygon class="cls-4" points="68.7 116.59 66.49 116.59 66.49 117.72 68.7 116.59"/><polygon class="cls-4" points="68.7 116.59 66.93 117.91 66.25 116.99 68.7 116.59"/><polygon class="cls-4" points="64.48 116.59 66.25 117.91 66.97 116.99 64.48 116.59"/><polygon class="cls-4" points="64.48 116.59 66.73 116.59 66.73 117.72 64.48 116.59"/><polygon class="cls-4" points="67.93 119.1 67.24 116.98 66.16 117.32 67.93 119.1"/><polygon class="cls-4" points="67.93 119.1 66.11 117.76 66.76 116.88 67.93 119.1"/><polygon class="cls-4" points="65.26 119.1 67.11 117.76 66.42 116.88 65.26 119.1"/><polygon class="cls-4" points="65.26 119.1 65.94 116.98 67.03 117.32 65.26 119.1"/><polygon class="cls-4" points="60.18 120.47 59.76 121.92 60.45 122.14 60.18 120.47"/><polygon class="cls-4" points="60.18 120.47 60.64 121.92 59.95 122.14 60.18 120.47"/><polygon class="cls-4" points="61.6 121.52 60.09 121.52 60.09 122.27 61.6 121.52"/><polygon class="cls-4" points="61.6 121.52 60.4 122.41 59.97 121.8 61.6 121.52"/><polygon class="cls-4" points="58.78 121.52 59.97 122.41 60.4 121.8 58.78 121.52"/><polygon class="cls-4" points="58.78 121.52 60.26 121.52 60.26 122.27 58.78 121.52"/><polygon class="cls-4" points="61.06 123.19 60.6 121.76 59.91 122.01 61.06 123.19"/><polygon class="cls-4" points="61.06 123.19 59.87 122.31 60.31 121.69 61.06 123.19"/><polygon class="cls-4" points="59.32 123.19 60.51 122.31 60.09 121.69 59.32 123.19"/><polygon class="cls-4" points="59.32 123.19 59.76 121.76 60.45 122.01 59.32 123.19"/><polygon class="cls-4" points="71.73 113 71.38 114.01 71.88 114.2 71.73 113"/><polygon class="cls-4" points="71.73 113 72.04 114.01 71.55 114.2 71.73 113"/><polygon class="cls-4" points="72.73 113.76 71.69 113.76 71.69 114.28 72.73 113.76"/><polygon class="cls-4" points="72.73 113.76 71.88 114.39 71.58 113.95 72.73 113.76"/><polygon class="cls-4" points="70.68 113.76 71.58 114.39 71.88 113.95 70.68 113.76"/><polygon class="cls-4" points="70.68 113.76 71.77 113.76 71.77 114.28 70.68 113.76"/><polygon class="cls-4" points="72.36 114.96 72 113.92 71.55 114.09 72.36 114.96"/><polygon class="cls-4" points="72.36 114.96 71.5 114.31 71.81 113.87 72.36 114.96"/><polygon class="cls-4" points="71.1 114.96 71.97 114.31 71.64 113.87 71.1 114.96"/><polygon class="cls-4" points="71.1 114.96 71.42 113.92 71.92 114.09 71.1 114.96"/><polygon class="cls-4" points="77.52 120.61 76.93 122.4 77.77 122.7 77.52 120.61"/><polygon class="cls-4" points="77.52 120.61 78.06 122.4 77.2 122.7 77.52 120.61"/><polygon class="cls-4" points="79.25 121.92 77.39 121.92 77.39 122.83 79.25 121.92"/><polygon class="cls-4" points="79.25 121.92 77.75 123.01 77.2 122.24 79.25 121.92"/><polygon class="cls-4" points="75.72 121.92 77.22 123.01 77.77 122.24 75.72 121.92"/><polygon class="cls-4" points="75.72 121.92 77.58 121.92 77.58 122.83 75.72 121.92"/><polygon class="cls-4" points="78.61 123.97 78.02 122.22 77.12 122.52 78.61 123.97"/><polygon class="cls-4" points="78.61 123.97 77.08 122.89 77.62 122.14 78.61 123.97"/><polygon class="cls-4" points="76.43 123.97 77.89 122.89 77.34 122.14 76.43 123.97"/><polygon class="cls-4" points="76.43 123.97 76.97 122.22 77.85 122.52 76.43 123.97"/><polygon class="cls-4" points="75.93 125.81 75.34 127.59 76.22 127.89 75.93 125.81"/><polygon class="cls-4" points="75.93 125.81 76.49 127.59 75.61 127.89 75.93 125.81"/><polygon class="cls-4" points="77.71 127.11 75.85 127.11 75.85 128.02 77.71 127.11"/><polygon class="cls-4" points="77.71 127.11 76.18 128.21 75.63 127.45 77.71 127.11"/><polygon class="cls-4" points="74.18 127.11 75.68 128.21 76.22 127.45 74.18 127.11"/><polygon class="cls-4" points="74.18 127.11 76.03 127.11 76.03 128.02 74.18 127.11"/><polygon class="cls-4" points="77.01 129.2 76.47 127.42 75.57 127.7 77.01 129.2"/><polygon class="cls-4" points="77.01 129.2 75.49 128.08 76.07 127.35 77.01 129.2"/><polygon class="cls-4" points="74.84 129.2 76.35 128.08 75.8 127.35 74.84 129.2"/><polygon class="cls-4" points="74.84 129.2 75.41 127.42 76.31 127.7 74.84 129.2"/><polygon class="cls-4" points="120.93 86.19 120.23 88.33 121.32 88.68 120.93 86.19"/><polygon class="cls-4" points="120.93 86.19 121.63 88.33 120.55 88.68 120.93 86.19"/><polygon class="cls-4" points="123.06 87.75 120.82 87.75 120.82 88.88 123.06 87.75"/><polygon class="cls-4" points="123.06 87.75 121.23 89.07 120.59 88.15 123.06 87.75"/><polygon class="cls-4" points="118.79 87.75 120.63 89.07 121.28 88.15 118.79 87.75"/><polygon class="cls-4" points="118.79 87.75 121.04 87.75 121.04 88.88 118.79 87.75"/><polygon class="cls-4" points="122.26 90.27 121.55 88.13 120.51 88.48 122.26 90.27"/><polygon class="cls-4" points="122.26 90.27 120.42 88.94 121.09 88.02 122.26 90.27"/><polygon class="cls-4" points="119.61 90.27 121.43 88.94 120.78 88.02 119.61 90.27"/><polygon class="cls-4" points="119.61 90.27 120.32 88.13 121.41 88.48 119.61 90.27"/><polygon class="cls-4" points="141.35 120.81 140.66 122.95 141.75 123.3 141.35 120.81"/><polygon class="cls-4" points="141.35 120.81 142.06 122.95 141.02 123.3 141.35 120.81"/><polygon class="cls-4" points="143.5 122.37 141.25 122.37 141.25 123.47 143.5 122.37"/><polygon class="cls-4" points="143.5 122.37 141.71 123.68 141.02 122.77 143.5 122.37"/><polygon class="cls-4" points="139.23 122.37 141.07 123.68 141.71 122.77 139.23 122.37"/><polygon class="cls-4" points="139.23 122.37 141.48 122.37 141.48 123.47 139.23 122.37"/><polygon class="cls-4" points="142.73 124.87 142.02 122.74 140.94 123.07 142.73 124.87"/><polygon class="cls-4" points="142.73 124.87 140.89 123.55 141.56 122.63 142.73 124.87"/><polygon class="cls-4" points="140.06 124.87 141.88 123.55 141.21 122.63 140.06 124.87"/><polygon class="cls-4" points="140.06 124.87 140.74 122.74 141.84 123.07 140.06 124.87"/><polygon class="cls-4" points="148.66 122.06 148.17 123.47 148.92 123.7 148.66 122.06"/><polygon class="cls-4" points="148.66 122.06 149.12 123.47 148.37 123.7 148.66 122.06"/><polygon class="cls-4" points="150.04 123.09 148.58 123.09 148.58 123.83 150.04 123.09"/><polygon class="cls-4" points="150.04 123.09 148.85 123.97 148.41 123.36 150.04 123.09"/><polygon class="cls-4" points="147.23 123.09 148.41 123.97 148.89 123.36 147.23 123.09"/><polygon class="cls-4" points="147.23 123.09 148.72 123.09 148.72 123.83 147.23 123.09"/><polygon class="cls-4" points="149.51 124.76 149.09 123.33 148.35 123.58 149.51 124.76"/><polygon class="cls-4" points="149.51 124.76 148.31 123.88 148.76 123.26 149.51 124.76"/><polygon class="cls-4" points="147.76 124.76 148.96 123.88 148.54 123.26 147.76 124.76"/><polygon class="cls-4" points="147.76 124.76 148.22 123.33 148.92 123.58 147.76 124.76"/><polygon class="cls-4" points="143.5 125.81 142.96 127.59 143.81 127.89 143.5 125.81"/><polygon class="cls-4" points="143.5 125.81 144.07 127.59 143.24 127.89 143.5 125.81"/><polygon class="cls-4" points="145.28 127.11 143.42 127.11 143.42 128.02 145.28 127.11"/><polygon class="cls-4" points="145.28 127.11 143.81 128.21 143.24 127.45 145.28 127.11"/><polygon class="cls-4" points="141.75 127.11 143.28 128.21 143.81 127.45 141.75 127.11"/><polygon class="cls-4" points="141.75 127.11 143.61 127.11 143.61 128.02 141.75 127.11"/><polygon class="cls-4" points="144.62 129.2 144.05 127.42 143.15 127.7 144.62 129.2"/><polygon class="cls-4" points="144.62 129.2 143.11 128.08 143.66 127.35 144.62 129.2"/><polygon class="cls-4" points="142.41 129.2 143.92 128.08 143.38 127.35 142.41 129.2"/><polygon class="cls-4" points="142.41 129.2 142.98 127.42 143.88 127.7 142.41 129.2"/><polygon class="cls-4" points="130.91 136.78 130.33 138.55 131.2 138.84 130.91 136.78"/><polygon class="cls-4" points="130.91 136.78 131.47 138.55 130.57 138.84 130.91 136.78"/><polygon class="cls-4" points="132.68 138.09 130.82 138.09 130.82 139.03 132.68 138.09"/><polygon class="cls-4" points="132.68 138.09 131.16 139.17 130.62 138.41 132.68 138.09"/><polygon class="cls-4" points="129.15 138.09 130.66 139.17 131.16 138.41 129.15 138.09"/><polygon class="cls-4" points="129.15 138.09 131.01 138.09 131.01 139.03 129.15 138.09"/><polygon class="cls-4" points="131.97 140.16 131.45 138.39 130.51 138.66 131.97 140.16"/><polygon class="cls-4" points="131.97 140.16 130.47 139.05 131.01 138.32 131.97 140.16"/><polygon class="cls-4" points="129.82 140.16 131.32 139.05 130.78 138.32 129.82 140.16"/><polygon class="cls-4" points="129.82 140.16 130.38 138.39 131.28 138.66 129.82 140.16"/><polygon class="cls-4" points="130.82 142.44 130.38 143.84 131.1 144.08 130.82 142.44"/><polygon class="cls-4" points="130.82 142.44 131.28 143.84 130.57 144.08 130.82 142.44"/><polygon class="cls-4" points="132.24 143.48 130.78 143.48 130.78 144.22 132.24 143.48"/><polygon class="cls-4" points="132.24 143.48 131.01 144.33 130.57 143.74 132.24 143.48"/><polygon class="cls-4" points="129.43 143.48 130.62 144.33 131.05 143.74 129.43 143.48"/><polygon class="cls-4" points="129.43 143.48 130.91 143.48 130.91 144.22 129.43 143.48"/><polygon class="cls-4" points="131.71 145.12 131.25 143.72 130.51 143.94 131.71 145.12"/><polygon class="cls-4" points="131.71 145.12 130.47 144.26 130.93 143.65 131.71 145.12"/><polygon class="cls-4" points="129.96 145.12 131.16 144.26 130.7 143.65 129.96 145.12"/><polygon class="cls-4" points="129.96 145.12 130.42 143.72 131.12 143.94 129.96 145.12"/><polygon class="cls-4" points="136.13 133.02 135.63 134.45 136.32 134.68 136.13 133.02"/><polygon class="cls-4" points="136.13 133.02 136.55 134.45 135.86 134.68 136.13 133.02"/><polygon class="cls-4" points="137.52 134.05 136.01 134.05 136.01 134.8 137.52 134.05"/><polygon class="cls-4" points="137.52 134.05 136.32 134.95 135.86 134.36 137.52 134.05"/><polygon class="cls-4" points="134.69 134.05 135.9 134.95 136.32 134.36 134.69 134.05"/><polygon class="cls-4" points="134.69 134.05 136.21 134.05 136.21 134.8 134.69 134.05"/><polygon class="cls-4" points="136.99 135.72 136.51 134.31 135.81 134.55 136.99 135.72"/><polygon class="cls-4" points="136.99 135.72 135.77 134.85 136.25 134.25 136.99 135.72"/><polygon class="cls-4" points="135.24 135.72 136.45 134.85 136.01 134.25 135.24 135.72"/><polygon class="cls-4" points="135.24 135.72 135.72 134.31 136.4 134.55 135.24 135.72"/><polygon class="cls-4" points="140.31 130.03 139.74 131.79 140.61 132.07 140.31 130.03"/><polygon class="cls-4" points="140.31 130.03 140.89 131.79 139.97 132.07 140.31 130.03"/><polygon class="cls-4" points="142.06 131.32 140.2 131.32 140.2 132.24 142.06 131.32"/><polygon class="cls-4" points="142.06 131.32 140.61 132.41 140.06 131.64 142.06 131.32"/><polygon class="cls-4" points="138.53 131.32 140.06 132.41 140.61 131.64 138.53 131.32"/><polygon class="cls-4" points="138.53 131.32 140.39 131.32 140.39 132.24 138.53 131.32"/><polygon class="cls-4" points="141.4 133.37 140.85 131.62 139.93 131.91 141.4 133.37"/><polygon class="cls-4" points="141.4 133.37 139.89 132.29 140.44 131.53 141.4 133.37"/><polygon class="cls-4" points="139.2 133.37 140.74 132.29 140.17 131.53 139.2 133.37"/><polygon class="cls-4" points="139.2 133.37 139.81 131.62 140.66 131.91 139.2 133.37"/><polygon class="cls-4" points="130.66 132.02 130.24 133.45 130.93 133.69 130.66 132.02"/><polygon class="cls-4" points="130.66 132.02 131.16 133.45 130.42 133.69 130.66 132.02"/><polygon class="cls-4" points="132.15 133.07 130.62 133.07 130.62 133.81 132.15 133.07"/><polygon class="cls-4" points="132.15 133.07 130.91 133.94 130.47 133.31 132.15 133.07"/><polygon class="cls-4" points="129.28 133.07 130.47 133.94 130.91 133.31 129.28 133.07"/><polygon class="cls-4" points="129.28 133.07 130.78 133.07 130.78 133.81 129.28 133.07"/><polygon class="cls-4" points="131.6 134.75 131.12 133.31 130.38 133.53 131.6 134.75"/><polygon class="cls-4" points="131.6 134.75 130.37 133.84 130.78 133.26 131.6 134.75"/><polygon class="cls-4" points="129.82 134.75 131.01 133.84 130.57 133.26 129.82 134.75"/><polygon class="cls-4" points="129.82 134.75 130.29 133.31 131.01 133.53 129.82 134.75"/><polygon class="cls-4" points="84.77 104.96 84.18 106.72 85.08 107 84.77 104.96"/><polygon class="cls-4" points="84.77 104.96 85.33 106.72 84.46 107 84.77 104.96"/><polygon class="cls-4" points="86.54 106.24 84.68 106.24 84.68 107.17 86.54 106.24"/><polygon class="cls-4" points="86.54 106.24 85.03 107.36 84.49 106.58 86.54 106.24"/><polygon class="cls-4" points="82.97 106.24 84.49 107.36 85.03 106.58 82.97 106.24"/><polygon class="cls-4" points="82.97 106.24 84.83 106.24 84.83 107.17 82.97 106.24"/><polygon class="cls-4" points="85.85 108.32 85.31 106.56 84.42 106.85 85.85 108.32"/><polygon class="cls-4" points="85.85 108.32 84.33 107.23 84.87 106.47 85.85 108.32"/><polygon class="cls-4" points="83.63 108.32 85.19 107.23 84.64 106.47 83.63 108.32"/><polygon class="cls-4" points="83.63 108.32 84.24 106.56 85.1 106.85 83.63 108.32"/><polygon class="cls-4" points="118.92 100.53 118.5 101.97 119.19 102.18 118.92 100.53"/><polygon class="cls-4" points="118.92 100.53 119.42 101.97 118.69 102.18 118.92 100.53"/><polygon class="cls-4" points="120.38 101.59 118.87 101.59 118.87 102.32 120.38 101.59"/><polygon class="cls-4" points="120.38 101.59 119.15 102.47 118.73 101.86 120.38 101.59"/><polygon class="cls-4" points="117.52 101.59 118.73 102.47 119.15 101.86 117.52 101.59"/><polygon class="cls-4" points="117.52 101.59 119.04 101.59 119.04 102.32 117.52 101.59"/><polygon class="cls-4" points="119.84 103.26 119.33 101.83 118.65 102.07 119.84 103.26"/><polygon class="cls-4" points="119.84 103.26 118.61 102.36 119.04 101.75 119.84 103.26"/><polygon class="cls-4" points="118.06 103.26 119.27 102.36 118.83 101.75 118.06 103.26"/><polygon class="cls-4" points="118.06 103.26 118.52 101.83 119.23 102.07 118.06 103.26"/><polygon class="cls-4" points="104.69 125.94 103.98 128.06 105.06 128.42 104.69 125.94"/><polygon class="cls-4" points="104.69 125.94 105.39 128.06 104.34 128.42 104.69 125.94"/><polygon class="cls-4" points="106.82 127.48 104.6 127.48 104.6 128.61 106.82 127.48"/><polygon class="cls-4" points="106.82 127.48 105.02 128.81 104.38 127.89 106.82 127.48"/><polygon class="cls-4" points="102.56 127.48 104.43 128.81 105.02 127.89 102.56 127.48"/><polygon class="cls-4" points="102.56 127.48 104.8 127.48 104.8 128.61 102.56 127.48"/><polygon class="cls-4" points="106.01 130 105.34 127.88 104.25 128.21 106.01 130"/><polygon class="cls-4" points="106.01 130 104.21 128.68 104.84 127.78 106.01 130"/><polygon class="cls-4" points="103.38 130 105.19 128.68 104.52 127.78 103.38 130"/><polygon class="cls-4" points="103.38 130 104.07 127.88 105.15 128.21 103.38 130"/><polygon class="cls-4" points="110.77 115.92 110.19 117.69 111.09 117.97 110.77 115.92"/><polygon class="cls-4" points="110.77 115.92 111.36 117.69 110.45 117.97 110.77 115.92"/><polygon class="cls-4" points="112.53 117.21 110.65 117.21 110.65 118.12 112.53 117.21"/><polygon class="cls-4" points="112.53 117.21 111 118.3 110.45 117.55 112.53 117.21"/><polygon class="cls-4" points="108.99 117.21 110.5 118.3 111.05 117.55 108.99 117.21"/><polygon class="cls-4" points="108.99 117.21 110.85 117.21 110.85 118.12 108.99 117.21"/><polygon class="cls-4" points="111.86 119.3 111.27 117.51 110.39 117.81 111.86 119.3"/><polygon class="cls-4" points="111.86 119.3 110.35 118.19 110.89 117.43 111.86 119.3"/><polygon class="cls-4" points="109.64 119.3 111.17 118.19 110.63 117.43 109.64 119.3"/><polygon class="cls-4" points="109.64 119.3 110.23 117.51 111.13 117.81 109.64 119.3"/><polygon class="cls-4" points="104.69 111.23 104.1 112.99 105 113.28 104.69 111.23"/><polygon class="cls-4" points="104.69 111.23 105.26 112.99 104.43 113.28 104.69 111.23"/><polygon class="cls-4" points="106.47 112.5 104.6 112.5 104.6 113.44 106.47 112.5"/><polygon class="cls-4" points="106.47 112.5 104.97 113.59 104.43 112.85 106.47 112.5"/><polygon class="cls-4" points="102.94 112.5 104.47 113.59 104.97 112.85 102.94 112.5"/><polygon class="cls-4" points="102.94 112.5 104.8 112.5 104.8 113.44 102.94 112.5"/><polygon class="cls-4" points="105.81 114.59 105.24 112.81 104.34 113.1 105.81 114.59"/><polygon class="cls-4" points="105.81 114.59 104.3 113.5 104.84 112.74 105.81 114.59"/><polygon class="cls-4" points="103.61 114.59 105.11 113.5 104.56 112.74 103.61 114.59"/><polygon class="cls-4" points="103.61 114.59 104.17 112.81 105.06 113.1 103.61 114.59"/><polygon class="cls-4" points="99.41 116.29 98.95 117.72 99.67 117.95 99.41 116.29"/><polygon class="cls-4" points="99.41 116.29 99.91 117.72 99.17 117.95 99.41 116.29"/><polygon class="cls-4" points="100.85 117.32 99.36 117.32 99.36 118.05 100.85 117.32"/><polygon class="cls-4" points="100.85 117.32 99.63 118.19 99.17 117.58 100.85 117.32"/><polygon class="cls-4" points="98.03 117.32 99.21 118.19 99.63 117.58 98.03 117.32"/><polygon class="cls-4" points="98.03 117.32 99.5 117.32 99.5 118.05 98.03 117.32"/><polygon class="cls-4" points="100.31 119 99.87 117.57 99.14 117.8 100.31 119"/><polygon class="cls-4" points="100.31 119 99.12 118.11 99.58 117.51 100.31 119"/><polygon class="cls-4" points="98.58 119 99.76 118.11 99.32 117.51 98.58 119"/><polygon class="cls-4" points="98.58 119 99.03 117.57 99.72 117.8 98.58 119"/><polygon class="cls-4" points="102.08 120.34 101.75 121.36 102.25 121.52 102.08 120.34"/><polygon class="cls-4" points="102.08 120.34 102.39 121.36 101.89 121.52 102.08 120.34"/><polygon class="cls-4" points="103.09 121.08 102.02 121.08 102.02 121.61 103.09 121.08"/><polygon class="cls-4" points="103.09 121.08 102.25 121.71 101.93 121.28 103.09 121.08"/><polygon class="cls-4" points="101.04 121.08 101.93 121.71 102.25 121.28 101.04 121.08"/><polygon class="cls-4" points="101.04 121.08 102.13 121.08 102.13 121.61 101.04 121.08"/><polygon class="cls-4" points="102.67 122.29 102.35 121.27 101.84 121.42 102.67 122.29"/><polygon class="cls-4" points="102.67 122.29 101.81 121.66 102.17 121.22 102.67 122.29"/><polygon class="cls-4" points="101.43 122.29 102.29 121.66 101.97 121.22 101.43 122.29"/><polygon class="cls-4" points="101.43 122.29 101.79 121.27 102.29 121.42 101.43 122.29"/><polygon class="cls-4" points="120.38 138.06 119.79 139.84 120.69 140.14 120.38 138.06"/><polygon class="cls-4" points="120.38 138.06 120.97 139.84 120.05 140.14 120.38 138.06"/><polygon class="cls-4" points="122.14 139.34 120.27 139.34 120.27 140.3 122.14 139.34"/><polygon class="cls-4" points="122.14 139.34 120.63 140.45 120.09 139.68 122.14 139.34"/><polygon class="cls-4" points="118.61 139.34 120.09 140.45 120.67 139.68 118.61 139.34"/><polygon class="cls-4" points="118.61 139.34 120.47 139.34 120.47 140.3 118.61 139.34"/><polygon class="cls-4" points="121.46 141.44 120.89 139.66 120.01 139.96 121.46 141.44"/><polygon class="cls-4" points="121.46 141.44 119.96 140.35 120.51 139.6 121.46 141.44"/><polygon class="cls-4" points="119.27 141.44 120.78 140.35 120.23 139.6 119.27 141.44"/><polygon class="cls-4" points="119.27 141.44 119.84 139.66 120.73 139.96 119.27 141.44"/><polygon class="cls-4" points="124.85 133.81 124.39 135.23 125.08 135.47 124.85 133.81"/><polygon class="cls-4" points="124.85 133.81 125.31 135.23 124.57 135.47 124.85 133.81"/><polygon class="cls-4" points="126.28 134.85 124.77 134.85 124.77 135.56 126.28 134.85"/><polygon class="cls-4" points="126.28 134.85 125.08 135.72 124.61 135.13 126.28 134.85"/><polygon class="cls-4" points="123.41 134.85 124.61 135.72 125.08 135.13 123.41 134.85"/><polygon class="cls-4" points="123.41 134.85 124.94 134.85 124.94 135.56 123.41 134.85"/><polygon class="cls-4" points="125.73 136.5 125.27 135.09 124.57 135.33 125.73 136.5"/><polygon class="cls-4" points="125.73 136.5 124.54 135.63 124.98 135.03 125.73 136.5"/><polygon class="cls-4" points="124 136.5 125.18 135.63 124.73 135.03 124 136.5"/><polygon class="cls-4" points="124 136.5 124.46 135.09 125.16 135.33 124 136.5"/><polygon class="cls-4" points="116.24 132.53 115.78 133.94 116.47 134.18 116.24 132.53"/><polygon class="cls-4" points="116.24 132.53 116.7 133.94 116.02 134.18 116.24 132.53"/><polygon class="cls-4" points="117.64 133.55 116.16 133.55 116.16 134.31 117.64 133.55"/><polygon class="cls-4" points="117.64 133.55 116.44 134.45 116.02 133.82 117.64 133.55"/><polygon class="cls-4" points="114.8 133.55 116.02 134.45 116.44 133.82 114.8 133.55"/><polygon class="cls-4" points="114.8 133.55 116.33 133.55 116.33 134.31 114.8 133.55"/><polygon class="cls-4" points="117.12 135.23 116.66 133.81 115.93 134.05 117.12 135.23"/><polygon class="cls-4" points="117.12 135.23 115.89 134.36 116.35 133.75 117.12 135.23"/><polygon class="cls-4" points="115.34 135.23 116.55 134.36 116.11 133.75 115.34 135.23"/><polygon class="cls-4" points="115.34 135.23 115.8 133.81 116.55 134.05 115.34 135.23"/><polygon class="cls-4" points="83.68 130.2 83.01 132.34 84.05 132.68 83.68 130.2"/><polygon class="cls-4" points="83.68 130.2 84.37 132.34 83.33 132.68 83.68 130.2"/><polygon class="cls-4" points="85.85 131.78 83.59 131.78 83.59 132.89 85.85 131.78"/><polygon class="cls-4" points="85.85 131.78 84 133.08 83.36 132.17 85.85 131.78"/><polygon class="cls-4" points="81.53 131.78 83.41 133.08 84.02 132.17 81.53 131.78"/><polygon class="cls-4" points="81.53 131.78 83.78 131.78 83.78 132.89 81.53 131.78"/><polygon class="cls-4" points="84.99 134.27 84.33 132.15 83.28 132.48 84.99 134.27"/><polygon class="cls-4" points="84.99 134.27 83.19 132.95 83.83 132.05 84.99 134.27"/><polygon class="cls-4" points="82.36 134.27 84.18 132.95 83.52 132.05 82.36 134.27"/><polygon class="cls-4" points="82.36 134.27 83.1 132.15 84.13 132.48 82.36 134.27"/><polygon class="cls-4" points="104.69 144.87 104.47 145.59 104.8 145.71 104.69 144.87"/><polygon class="cls-4" points="104.69 144.87 104.93 145.59 104.6 145.71 104.69 144.87"/><polygon class="cls-4" points="105.42 145.4 104.65 145.4 104.65 145.77 105.42 145.4"/><polygon class="cls-4" points="105.42 145.4 104.8 145.84 104.6 145.53 105.42 145.4"/><polygon class="cls-4" points="103.98 145.4 104.6 145.84 104.8 145.53 103.98 145.4"/><polygon class="cls-4" points="103.98 145.4 104.71 145.4 104.71 145.77 103.98 145.4"/><polygon class="cls-4" points="105.11 146.23 104.93 145.52 104.56 145.65 105.11 146.23"/><polygon class="cls-4" points="105.11 146.23 104.52 145.8 104.71 145.51 105.11 146.23"/><polygon class="cls-4" points="104.25 146.23 104.84 145.8 104.65 145.51 104.25 146.23"/><polygon class="cls-4" points="104.25 146.23 104.51 145.52 104.84 145.65 104.25 146.23"/></g></g></svg>