<svg xmlns="http://www.w3.org/2000/svg" viewBox="0 0 209.38 208.63"><defs><style>.cls-1{fill:#478e3f;}.cls-1,.cls-2,.cls-3{fill-rule:evenodd;}.cls-2{fill:#242222;}.cls-3{fill:#f4e00c;}</style></defs><title>Asset 9</title><g id="Layer_2" data-name="Layer 2"><g id="Layer_1-2" data-name="Layer 1"><path class="cls-1" d="M95.86,208.63h17.66a104.14,104.14,0,0,0,55-21.31l-63.79-63.57L40.9,187.32A104.11,104.11,0,0,0,95.86,208.63Z"/><path class="cls-1" d="M113.52,0H95.86a104.11,104.11,0,0,0-55,21.31l63.79,63.58,63.79-63.58A104.14,104.14,0,0,0,113.52,0Z"/><path class="cls-2" d="M21.46,167.82l63.72-63.5L21.46,40.82a104.68,104.68,0,0,0,0,127Z"/><path class="cls-2" d="M187.92,40.82l-63.72,63.5,63.72,63.5a104.68,104.68,0,0,0,0-127Z"/><path class="cls-3" d="M40.9,187.32l63.79-63.57,63.79,63.57a105.6,105.6,0,0,0,10.37-9.11l-74.16-73.89L30.53,178.21A104.46,104.46,0,0,0,40.9,187.32Z"/><path class="cls-3" d="M168.48,21.31,104.69,84.89,40.9,21.31a104.46,104.46,0,0,0-10.37,9.11l74.16,73.9,74.16-73.9A104.46,104.46,0,0,0,168.48,21.31Z"/><path class="cls-3" d="M178.85,30.42l-74.16,73.9,74.16,73.89a105.43,105.43,0,0,0,9.07-10.39l-63.72-63.5,63.72-63.5A104.24,104.24,0,0,0,178.85,30.42Z"/><path class="cls-3" d="M21.46,40.82l63.72,63.5-63.72,63.5a106.76,106.76,0,0,0,9.07,10.39l74.16-73.89L30.53,30.42A105.54,105.54,0,0,0,21.46,40.82Z"/></g></g></svg>