<svg xmlns="http://www.w3.org/2000/svg" viewBox="0 0 209.38 209.38"><defs><style>.cls-1{fill:#c12837;}.cls-1,.cls-2,.cls-3{fill-rule:evenodd;}.cls-2{fill:#48b040;}.cls-3{fill:#fefefe;}</style></defs><title>Asset 10</title><g id="Layer_2" data-name="Layer 2"><g id="Layer_1-2" data-name="Layer 1"><path class="cls-1" d="M22.18,40.26l82.5,48.12L187.2,40.25a104.69,104.69,0,0,0-165,0Z"/><path class="cls-1" d="M187.2,169.14,104.68,121,22.17,169.12a104.71,104.71,0,0,0,165,0Z"/><path class="cls-2" d="M201.4,64.54l-68.78,40.11,68.79,40.16a105,105,0,0,0,0-80.27Z"/><path class="cls-2" d="M8,144.8l68.76-40.15L8,64.55A104.93,104.93,0,0,0,8,144.8Z"/><path class="cls-3" d="M187.21,40.26,148.19,63a62.23,62.23,0,0,0-87,0l-39-22.77A104.32,104.32,0,0,0,8,64.56L46.36,87a58.36,58.36,0,0,0,0,35.47L8,144.83a104.42,104.42,0,0,0,14.2,24.3l39-22.74a62.33,62.33,0,0,0,87,0l39,22.75a104.63,104.63,0,0,0,14.2-24.31L163,122.42A58.13,58.13,0,0,0,163,87L201.4,64.55A104.67,104.67,0,0,0,187.21,40.26Z"/><polygon class="cls-2" points="108.7 66.97 104.68 59.98 100.63 66.97 92.58 66.97 96.61 73.95 92.58 80.94 100.63 80.94 104.68 87.92 108.7 80.94 116.77 80.94 112.74 73.95 116.77 66.97 108.7 66.97"/><polygon class="cls-2" points="139.35 120.08 143.4 113.1 135.34 113.1 131.3 106.11 127.27 113.1 119.19 113.1 123.22 120.08 119.19 127.06 127.27 127.06 131.3 134.05 135.34 127.06 143.4 127.06 139.35 120.08"/><polygon class="cls-2" points="82.09 113.1 78.06 106.11 74 113.1 65.94 113.1 69.97 120.08 65.94 127.06 74 127.06 78.06 134.05 82.09 127.06 90.16 127.06 86.14 120.08 90.16 113.1 82.09 113.1"/><polygon class="cls-1" points="108 68.22 104.68 62.49 101.36 68.22 94.75 68.22 98.06 73.95 94.75 79.68 101.36 79.68 104.68 85.41 108 79.68 114.59 79.68 111.28 73.95 114.59 68.22 108 68.22"/><polygon class="cls-1" points="137.91 120.08 141.2 114.31 134.59 114.31 131.3 108.63 128 114.31 121.37 114.31 124.69 120.08 121.37 125.77 128 125.77 131.3 131.54 134.59 125.77 141.2 125.77 137.91 120.08"/><polygon class="cls-1" points="81.35 114.31 78.06 108.63 74.72 114.31 68.13 114.31 71.43 120.08 68.13 125.77 74.72 125.77 78.06 131.54 81.35 125.77 87.97 125.77 84.67 120.08 87.97 114.31 81.35 114.31"/></g></g></svg>